<?xml version="1.0" encoding="utf-8"?>
<svg xmlns="http://www.w3.org/2000/svg" viewBox="0 0 64 64" fill="#ffffff"><path d="M 39.005859 8.9980469 C 38.750609 8.9980469 38.495281 9.0945625 38.300781 9.2890625 L 34.300781 13.289062 C 33.911781 13.678062 33.910781 14.310219 34.300781 14.699219 L 47.589844 28 L 23 28 C 22.448 28 22 28.448 22 29 L 22 35 C 22 35.552 22.448 36 23 36 L 47.589844 36 L 34.289062 49.289062 C 33.899062 49.678063 33.899062 50.310219 34.289062 50.699219 L 38.289062 54.699219 C 38.678063 55.088219 39.310219 55.088219 39.699219 54.699219 L 61.699219 32.699219 C 62.089219 32.309219 62.090938 31.679063 61.710938 31.289062 L 39.710938 9.2890625 C 39.516437 9.0945625 39.261109 8.9980469 39.005859 8.9980469 z M 39 11.410156 L 59.589844 32 L 39 52.589844 L 36.410156 50 L 50.710938 35.710938 C 50.910938 35.510937 51 35.26 51 35 C 51 34.75 50.910703 34.490781 50.720703 34.300781 C 50.530703 34.110781 50.27 34 50 34 L 24 34 L 24 30 L 50 30 C 50.55 30 50.999766 29.559766 51.009766 29.009766 C 51.009766 28.739766 50.900938 28.479062 50.710938 28.289062 L 36.410156 14 L 39 11.410156 z M 3 28 C 2.45 28 2 28.45 2 29 L 2 35 C 2 35.55 2.45 36 3 36 L 8 36 L 9 36 C 9.552 36 10 35.552 10 35 L 10 34 L 10 30 L 10 29 C 10 28.448 9.552 28 9 28 L 8 28 L 3 28 z M 13 28 C 12.448 28 12 28.448 12 29 L 12 30 L 12 34 L 12 35 C 12 35.552 12.448 36 13 36 L 14 36 L 18 36 L 19 36 C 19.552 36 20 35.552 20 35 L 20 34 L 20 30 L 20 29 C 20 28.448 19.552 28 19 28 L 18 28 L 14 28 L 13 28 z M 4 30 L 8 30 L 8 34 L 4 34 L 4 30 z M 14 30 L 18 30 L 18 34 L 14 34 L 14 30 z M 4 38 C 3.448 38 3 38.448 3 39 L 3 41 C 3 41.552 3.448 42 4 42 C 4.552 42 5 41.552 5 41 L 5 39 C 5 38.448 4.552 38 4 38 z M 9 38 C 8.448 38 8 38.448 8 39 L 8 41 C 8 41.552 8.448 42 9 42 C 9.552 42 10 41.552 10 41 L 10 39 C 10 38.448 9.552 38 9 38 z M 14 38 C 13.448 38 13 38.448 13 39 L 13 41 C 13 41.552 13.448 42 14 42 C 14.552 42 15 41.552 15 41 L 15 39 C 15 38.448 14.552 38 14 38 z M 19 38 C 18.448 38 18 38.448 18 39 L 18 41 C 18 41.552 18.448 42 19 42 C 19.552 42 20 41.552 20 41 L 20 39 C 20 38.448 19.552 38 19 38 z M 24 38 C 23.448 38 23 38.448 23 39 L 23 41 C 23 41.552 23.448 42 24 42 C 24.552 42 25 41.552 25 41 L 25 39 C 25 38.448 24.552 38 24 38 z M 29 38 C 28.448 38 28 38.448 28 39 L 28 41 C 28 41.552 28.448 42 29 42 C 29.552 42 30 41.552 30 41 L 30 39 C 30 38.448 29.552 38 29 38 z M 34 38 C 33.448 38 33 38.448 33 39 L 33 41 C 33 41.552 33.448 42 34 42 C 34.552 42 35 41.552 35 41 L 35 39 C 35 38.448 34.552 38 34 38 z M 39 38 C 38.448 38 38 38.448 38 39 L 38 41 C 38 41.552 38.448 42 39 42 C 39.552 42 40 41.552 40 41 L 40 39 C 40 38.448 39.552 38 39 38 z" fill="#ffffff"/></svg>
