<?xml version="1.0" encoding="UTF-8"?>
<svg width="220px" height="48px" viewBox="0 0 220 48" version="1.1" xmlns="http://www.w3.org/2000/svg" xmlns:xlink="http://www.w3.org/1999/xlink">
    <!-- Generator: Sketch 50.2 (55047) - http://www.bohemiancoding.com/sketch -->
    <title>Group 3</title>
    <desc>Created with Sketch.</desc>
    <defs></defs>
    <g id="Welcome" stroke="none" stroke-width="1" fill="none" fill-rule="evenodd">
        <g id="Desktop-HD" transform="translate(-130.000000, -44.000000)">
            <g id="Nav" transform="translate(130.000000, 44.000000)">
                <g id="Group-3">
                    <rect id="Rectangle-4" fill="#FB4D3D" transform="translate(110.000000, 24.000000) rotate(-2.000000) translate(-110.000000, -24.000000) " x="1" y="4" width="218" height="40"></rect>
                    <path d="M19.7920025,26.64 C19.7920025,27.1200024 19.6880035,27.5759978 19.4800025,28.008 C19.2720015,28.4400022 18.9813377,28.8213317 18.6080025,29.152 C18.2346673,29.4826683 17.7920051,29.7466657 17.2800025,29.944 C16.7679999,30.1413343 16.2026723,30.24 15.5840025,30.24 C15.0293331,30.24 14.5306714,30.2080003 14.0880025,30.144 C13.6453336,30.0799997 13.2293378,29.9786674 12.8400025,29.84 C12.4506672,29.7013326 12.0773376,29.5226678 11.7200025,29.304 C11.3626674,29.0853322 10.9920044,28.8213349 10.6080025,28.512 L12.3680025,26.736 C12.8800051,27.1626688 13.3813334,27.4639991 13.8720025,27.64 C14.3626716,27.8160009 14.8959996,27.904 15.4720025,27.904 C15.7066703,27.904 15.9280015,27.8693337 16.1360025,27.8 C16.3440035,27.7306663 16.5253351,27.6373339 16.6800025,27.52 C16.8346699,27.4026661 16.9573354,27.2640008 17.0480025,27.104 C17.1386696,26.9439992 17.1840025,26.768001 17.1840025,26.576 C17.1840025,26.3733323 17.1466695,26.1920008 17.0720025,26.032 C16.9973355,25.8719992 16.8640035,25.7173341 16.6720025,25.568 C16.4800015,25.4186659 16.2133375,25.2666674 15.8720025,25.112 C15.5306675,24.9573326 15.0933385,24.784001 14.5600025,24.592 C14.0906668,24.4213325 13.6400047,24.2266678 13.2080025,24.008 C12.7760003,23.7893322 12.3973375,23.5253349 12.0720025,23.216 C11.7466675,22.9066651 11.4853368,22.5440021 11.2880025,22.128 C11.0906682,21.7119979 10.9920025,21.2213362 10.9920025,20.656 C10.9920025,20.1119973 11.1013347,19.610669 11.3200025,19.152 C11.5386703,18.693331 11.8373339,18.301335 12.2160025,17.976 C12.5946711,17.650665 13.0373333,17.3973342 13.5440025,17.216 C14.0506717,17.0346658 14.5973329,16.944 15.1840025,16.944 C16.1653407,16.944 16.9919991,17.0719987 17.6640025,17.328 C18.3360059,17.5840013 18.9333332,17.9573309 19.4560025,18.448 L17.7280025,20.192 C17.4080009,19.8826651 17.0506711,19.6453342 16.6560025,19.48 C16.2613339,19.3146658 15.7973385,19.232 15.2640025,19.232 C15.0186679,19.232 14.7920035,19.269333 14.5840025,19.344 C14.3760015,19.418667 14.1973366,19.5173327 14.0480025,19.64 C13.8986684,19.7626673 13.7786696,19.9066658 13.6880025,20.072 C13.5973354,20.2373342 13.5520025,20.4106658 13.5520025,20.592 C13.5520025,20.7946677 13.5946687,20.9786658 13.6800025,21.144 C13.7653363,21.3093342 13.9093348,21.4693326 14.1120025,21.624 C14.3146702,21.7786674 14.5840008,21.9333326 14.9200025,22.088 C15.2560042,22.2426674 15.6746667,22.4106658 16.1760025,22.592 C16.8160057,22.8160011 17.3653335,23.061332 17.8240025,23.328 C18.2826715,23.594668 18.6560011,23.8879984 18.9440025,24.208 C19.2320039,24.5280016 19.4453351,24.887998 19.5840025,25.288 C19.7226699,25.688002 19.7920025,26.1386642 19.7920025,26.64 Z M32.6453355,21.504 C32.6453355,22.112003 32.53067,22.6799974 32.3013355,23.208 C32.072001,23.7360026 31.7600041,24.1946647 31.3653355,24.584 C30.9706669,24.9733353 30.5066715,25.2773322 29.9733355,25.496 C29.4399995,25.7146678 28.8746718,25.824 28.2773355,25.824 L26.1653355,25.824 L26.1653355,30 L23.6853355,30 L23.6853355,17.216 L28.2773355,17.216 C28.8746718,17.216 29.4399995,17.3253322 29.9733355,17.544 C30.5066715,17.7626678 30.9706669,18.0639981 31.3653355,18.448 C31.7600041,18.8320019 32.072001,19.2853307 32.3013355,19.808 C32.53067,20.3306693 32.6453355,20.895997 32.6453355,21.504 Z M30.1813355,21.472 C30.1813355,21.1413317 30.1200028,20.8320014 29.9973355,20.544 C29.8746682,20.2559986 29.7066699,20.0053344 29.4933355,19.792 C29.2800011,19.5786656 29.0293369,19.4080006 28.7413355,19.28 C28.4533341,19.1519994 28.1440038,19.088 27.8133355,19.088 L26.1653355,19.088 L26.1653355,23.92 L27.8133355,23.92 C28.1440038,23.92 28.4533341,23.853334 28.7413355,23.72 C29.0293369,23.586666 29.2800011,23.4080011 29.4933355,23.184 C29.7066699,22.9599989 29.8746682,22.7013348 29.9973355,22.408 C30.1200028,22.1146652 30.1813355,21.8026683 30.1813355,21.472 Z M49.4826685,23.6 C49.4826685,24.5173379 49.3040036,25.3813293 48.9466685,26.192 C48.5893334,27.0026707 48.1013383,27.7066637 47.4826685,28.304 C46.8639987,28.9013363 46.1440059,29.3733316 45.3226685,29.72 C44.5013311,30.0666684 43.6266731,30.24 42.6986685,30.24 C41.7706639,30.24 40.8933393,30.0666684 40.0666685,29.72 C39.2399977,29.3733316 38.5173383,28.9013363 37.8986685,28.304 C37.2799987,27.7066637 36.7920036,27.0053374 36.4346685,26.2 C36.0773334,25.3946626 35.8986685,24.5280046 35.8986685,23.6 C35.8986685,22.6719954 36.0773334,21.8026707 36.4346685,20.992 C36.7920036,20.1813293 37.2799987,19.4773363 37.8986685,18.88 C38.5173383,18.2826637 39.2399977,17.813335 40.0666685,17.472 C40.8933393,17.130665 41.7706639,16.96 42.6986685,16.96 C43.6266731,16.96 44.5013311,17.130665 45.3226685,17.472 C46.1440059,17.813335 46.8639987,18.2853303 47.4826685,18.888 C48.1013383,19.4906697 48.5893334,20.1946626 48.9466685,21 C49.3040036,21.8053374 49.4826685,22.6719954 49.4826685,23.6 Z M46.9866685,23.6 C46.9866685,23.0133304 46.8746696,22.4613359 46.6506685,21.944 C46.4266674,21.4266641 46.1200038,20.9733353 45.7306685,20.584 C45.3413332,20.1946647 44.8853378,19.8853345 44.3626685,19.656 C43.8399992,19.4266655 43.2853381,19.312 42.6986685,19.312 C42.1013322,19.312 41.5413378,19.4266655 41.0186685,19.656 C40.4959992,19.8853345 40.0400038,20.1946647 39.6506685,20.584 C39.2613332,20.9733353 38.9546696,21.4266641 38.7306685,21.944 C38.5066674,22.4613359 38.3946685,23.0133304 38.3946685,23.6 C38.3946685,24.1760029 38.5066674,24.7253307 38.7306685,25.248 C38.9546696,25.7706693 39.2613332,26.2266647 39.6506685,26.616 C40.0400038,27.0053353 40.4959992,27.3146655 41.0186685,27.544 C41.5413378,27.7733345 42.1013322,27.888 42.6986685,27.888 C43.2853381,27.888 43.8399992,27.7733345 44.3626685,27.544 C44.8853378,27.3146655 45.3413332,27.0053353 45.7306685,26.616 C46.1200038,26.2266647 46.4266674,25.7706693 46.6506685,25.248 C46.8746696,24.7253307 46.9866685,24.1760029 46.9866685,23.6 Z M63.1680015,30 L60.4320015,30 L59.5200015,27.088 C59.424001,26.7679984 59.3040022,26.474668 59.1600015,26.208 C59.0160008,25.941332 58.8426692,25.712001 58.6400015,25.52 C58.4373338,25.327999 58.1946696,25.1786672 57.9120015,25.072 C57.6293334,24.9653328 57.2960034,24.912 56.9120015,24.912 L55.9840015,24.912 L55.9840015,30 L53.5360015,30 L53.5360015,17.216 L58.5920015,17.2 C59.1360042,17.2 59.6426658,17.2933324 60.1120015,17.48 C60.5813372,17.6666676 60.9866665,17.9253317 61.3280015,18.256 C61.6693365,18.5866683 61.9360005,18.9759978 62.1280015,19.424 C62.3200025,19.8720022 62.4160015,20.3573307 62.4160015,20.88 C62.4160015,21.2533352 62.3573354,21.6159982 62.2400015,21.968 C62.1226676,22.3200018 61.9573359,22.6453318 61.7440015,22.944 C61.5306671,23.2426682 61.2773363,23.5066655 60.9840015,23.736 C60.6906667,23.9653345 60.3680033,24.1386661 60.0160015,24.256 C60.4213369,24.4053341 60.7520002,24.6213319 61.0080015,24.904 C61.2640028,25.1866681 61.4666674,25.5253314 61.6160015,25.92 C61.6906685,26.1013342 61.7600012,26.2826658 61.8240015,26.464 C61.8880018,26.6453342 61.9546678,26.8346657 62.0240015,27.032 C62.0933352,27.2293343 62.1680011,27.4426655 62.2480015,27.672 C62.3280019,27.9013345 62.416001,28.1546653 62.5120015,28.432 C62.6293354,28.7840018 62.7386677,29.0853321 62.8400015,29.336 C62.9413353,29.5866679 63.0506676,29.807999 63.1680015,30 Z M59.9200015,21.056 C59.9200015,20.7573318 59.8640021,20.4853346 59.7520015,20.24 C59.6400009,19.9946654 59.4880025,19.7813342 59.2960015,19.6 C59.1040005,19.4186658 58.8773361,19.2773338 58.6160015,19.176 C58.3546669,19.0746662 58.0746697,19.024 57.7760015,19.024 L55.9840015,19.024 L55.9840015,23.008 L57.7760015,23.008 C58.0746697,23.008 58.3546669,22.9626671 58.6160015,22.872 C58.8773361,22.7813329 59.1040005,22.6506675 59.2960015,22.48 C59.4880025,22.3093325 59.6400009,22.1040012 59.7520015,21.864 C59.8640021,21.6239988 59.9200015,21.3546682 59.9200015,21.056 Z M75.6053345,19.424 L72.0693345,19.424 L72.0693345,30 L69.5573345,30 L69.5573345,19.424 L66.0213345,19.424 L66.0213345,17.216 L75.6053345,17.216 L75.6053345,19.424 Z M81.8186675,30 L79.3386675,30 L79.3386675,17.216 L81.8186675,17.216 L81.8186675,30 Z M96.9920005,30 L94.5600005,30 L88.7840005,21.024 L88.7840005,30 L86.3520005,30 L86.3520005,17.2 L89.1360005,17.2 L94.5600005,25.552 L94.5600005,17.2 L96.9920005,17.2 L96.9920005,30 Z M113.301334,27.648 C112.938665,28.0960022 112.544002,28.482665 112.117334,28.808 C111.690665,29.133335 111.245336,29.4026656 110.781334,29.616 C110.317331,29.8293344 109.842669,29.9866662 109.357334,30.088 C108.871998,30.1893338 108.389336,30.24 107.909334,30.24 C106.959995,30.24 106.069338,30.069335 105.237334,29.728 C104.405329,29.386665 103.680003,28.9173363 103.061334,28.32 C102.442664,27.7226637 101.952002,27.0186707 101.589334,26.208 C101.226665,25.3973293 101.045334,24.5226714 101.045334,23.584 C101.045334,22.6666621 101.223998,21.8053374 101.581334,21 C101.938669,20.1946626 102.42933,19.4933363 103.053334,18.896 C103.677337,18.2986637 104.405329,17.8266684 105.237334,17.48 C106.069338,17.1333316 106.959995,16.96 107.909334,16.96 C109.008006,16.96 110.007996,17.1839978 110.909334,17.632 C111.810671,18.0800022 112.575997,18.6773296 113.205334,19.424 L111.525334,21.136 C111.045331,20.4853301 110.50667,20.0186681 109.909334,19.736 C109.311997,19.4533319 108.645337,19.312 107.909334,19.312 C107.30133,19.312 106.73067,19.4239989 106.197334,19.648 C105.663998,19.8720011 105.197336,20.1786647 104.797334,20.568 C104.397332,20.9573353 104.082668,21.4106641 103.853334,21.928 C103.623999,22.4453359 103.509334,22.9973304 103.509334,23.584 C103.509334,24.1813363 103.623999,24.7386641 103.853334,25.256 C104.082668,25.7733359 104.397332,26.2293314 104.797334,26.624 C105.197336,27.0186686 105.663998,27.3279989 106.197334,27.552 C106.73067,27.7760011 107.30133,27.888 107.909334,27.888 C108.485336,27.888 109.029331,27.7813344 109.541334,27.568 C110.053336,27.3546656 110.511998,27.0720018 110.917334,26.72 L110.917334,25.488 L108.293334,25.488 L108.293334,23.376 L113.301334,23.376 L113.301334,27.648 Z M136.24,27.696 C135.599996,28.4746706 134.824004,29.093331 133.912,29.552 C132.999995,30.010669 131.994672,30.24 130.896,30.24 C129.946661,30.24 129.056004,30.0666684 128.224,29.72 C127.391995,29.3733316 126.666669,28.9013363 126.048,28.304 C125.42933,27.7066637 124.941335,27.0053374 124.584,26.2 C124.226664,25.3946626 124.048,24.5280046 124.048,23.6 C124.048,22.6719954 124.226664,21.8053374 124.584,21 C124.941335,20.1946626 125.42933,19.4906697 126.048,18.888 C126.666669,18.2853303 127.391995,17.813335 128.224,17.472 C129.056004,17.130665 129.946661,16.96 130.896,16.96 C131.994672,16.96 132.999995,17.189331 133.912,17.648 C134.824004,18.106669 135.583996,18.7039963 136.192,19.44 L134.48,21.2 C134.085331,20.6346638 133.576003,20.1786684 132.952,19.832 C132.327996,19.4853316 131.64267,19.312 130.896,19.312 C130.298663,19.312 129.736002,19.4266655 129.208,19.656 C128.679997,19.8853345 128.218668,20.1946647 127.824,20.584 C127.429331,20.9733353 127.117334,21.4266641 126.888,21.944 C126.658665,22.4613359 126.544,23.0133304 126.544,23.6 C126.544,24.1760029 126.658665,24.7226641 126.888,25.24 C127.117334,25.7573359 127.429331,26.2106647 127.824,26.6 C128.218668,26.9893353 128.679997,27.2986655 129.208,27.528 C129.736002,27.7573345 130.298663,27.872 130.896,27.872 C131.685337,27.872 132.383996,27.6933351 132.992,27.336 C133.600003,26.9786649 134.106664,26.5066696 134.512,25.92 L136.24,27.696 Z M149.653333,30 L147.173333,30 L147.173333,24.336 L142.133333,24.336 L142.133333,30 L139.653333,30 L139.653333,17.216 L142.133333,17.216 L142.133333,22.288 L147.173333,22.288 L147.173333,17.216 L149.653333,17.216 L149.653333,30 Z M167.098666,30 L164.378666,30 L163.194666,27.44 L156.986666,27.44 L155.786666,30 L153.066666,30 L159.114666,17.2 L161.050666,17.2 L167.098666,30 Z M162.218666,25.376 L160.090666,20.768 L157.930666,25.376 L162.218666,25.376 Z M181.151999,30 L178.719999,30 L172.943999,21.024 L172.943999,30 L170.511999,30 L170.511999,17.2 L173.295999,17.2 L178.719999,25.552 L178.719999,17.2 L181.151999,17.2 L181.151999,30 Z M197.397332,27.696 C196.757328,28.4746706 195.981336,29.093331 195.069332,29.552 C194.157327,30.010669 193.152004,30.24 192.053332,30.24 C191.103993,30.24 190.213336,30.0666684 189.381332,29.72 C188.549327,29.3733316 187.824001,28.9013363 187.205332,28.304 C186.586662,27.7066637 186.098667,27.0053374 185.741332,26.2 C185.383996,25.3946626 185.205332,24.5280046 185.205332,23.6 C185.205332,22.6719954 185.383996,21.8053374 185.741332,21 C186.098667,20.1946626 186.586662,19.4906697 187.205332,18.888 C187.824001,18.2853303 188.549327,17.813335 189.381332,17.472 C190.213336,17.130665 191.103993,16.96 192.053332,16.96 C193.152004,16.96 194.157327,17.189331 195.069332,17.648 C195.981336,18.106669 196.741328,18.7039963 197.349332,19.44 L195.637332,21.2 C195.242663,20.6346638 194.733335,20.1786684 194.109332,19.832 C193.485328,19.4853316 192.800002,19.312 192.053332,19.312 C191.455995,19.312 190.893334,19.4266655 190.365332,19.656 C189.837329,19.8853345 189.376,20.1946647 188.981332,20.584 C188.586663,20.9733353 188.274666,21.4266641 188.045332,21.944 C187.815997,22.4613359 187.701332,23.0133304 187.701332,23.6 C187.701332,24.1760029 187.815997,24.7226641 188.045332,25.24 C188.274666,25.7573359 188.586663,26.2106647 188.981332,26.6 C189.376,26.9893353 189.837329,27.2986655 190.365332,27.528 C190.893334,27.7573345 191.455995,27.872 192.053332,27.872 C192.842669,27.872 193.541328,27.6933351 194.149332,27.336 C194.757335,26.9786649 195.263996,26.5066696 195.669332,25.92 L197.397332,27.696 Z M209.258665,30 L200.810665,30 L200.810665,17.216 L209.258665,17.216 L209.258665,19.264 L203.242665,19.264 L203.242665,22.32 L209.178665,22.32 L209.178665,24.32 L203.242665,24.32 L203.242665,27.84 L209.258665,27.84 L209.258665,30 Z" id="Sporting-Chance" fill="#FDFDFD"></path>
                </g>
            </g>
        </g>
    </g>
</svg>