<?xml version="1.0" encoding="UTF-8"?>
<svg xmlns="http://www.w3.org/2000/svg" xmlns:xlink="http://www.w3.org/1999/xlink" viewBox="0 0 64 64" version="1.1" fill="#ffffff"><g id="surface1" fill="#ffffff"><path style=" " d="M 7 6 C 5.347656 6 4 7.347656 4 9 L 4 55 C 4 56.652344 5.347656 58 7 58 L 57 58 C 58.652344 58 60 56.652344 60 55 L 60 9 C 60 7.347656 58.652344 6 57 6 Z M 7 8 L 57 8 C 57.550781 8 58 8.449219 58 9 L 58 55 C 58 55.550781 57.550781 56 57 56 L 7 56 C 6.449219 56 6 55.550781 6 55 L 6 9 C 6 8.449219 6.449219 8 7 8 Z M 20 12 C 19.445313 12 19 12.445313 19 13 L 19 18 L 14 18 C 13.445313 18 13 18.445313 13 19 C 13 19.554688 13.445313 20 14 20 L 19 20 L 19 25 C 19 25.554688 19.445313 26 20 26 C 20.554688 26 21 25.554688 21 25 L 21 20 L 26 20 C 26.554688 20 27 19.554688 27 19 C 27 18.445313 26.554688 18 26 18 L 21 18 L 21 13 C 21 12.445313 20.554688 12 20 12 Z M 38 18 C 37.445313 18 37 18.445313 37 19 C 37 19.554688 37.445313 20 38 20 L 50 20 C 50.554688 20 51 19.554688 51 19 C 51 18.445313 50.554688 18 50 18 Z M 15.757813 33.757813 C 15.503906 33.757813 15.246094 33.855469 15.050781 34.050781 C 14.660156 34.441406 14.660156 35.074219 15.050781 35.464844 L 18.585938 39 L 15.050781 42.535156 C 14.660156 42.925781 14.660156 43.558594 15.050781 43.949219 C 15.246094 44.144531 15.5 44.242188 15.757813 44.242188 C 16.015625 44.242188 16.269531 44.144531 16.464844 43.949219 L 20 40.414063 L 23.535156 43.949219 C 23.730469 44.144531 23.984375 44.242188 24.242188 44.242188 C 24.5 44.242188 24.753906 44.144531 24.949219 43.949219 C 25.339844 43.558594 25.339844 42.925781 24.949219 42.535156 L 21.414063 39 L 24.949219 35.464844 C 25.339844 35.074219 25.339844 34.441406 24.949219 34.050781 C 24.558594 33.660156 23.925781 33.660156 23.535156 34.050781 L 20 37.585938 L 16.464844 34.050781 C 16.269531 33.855469 16.011719 33.757813 15.757813 33.757813 Z M 38 34 C 37.445313 34 37 34.445313 37 35 C 37 35.554688 37.445313 36 38 36 L 50 36 C 50.554688 36 51 35.554688 51 35 C 51 34.445313 50.554688 34 50 34 Z M 38 42 C 37.445313 42 37 42.445313 37 43 C 37 43.554688 37.445313 44 38 44 L 50 44 C 50.554688 44 51 43.554688 51 43 C 51 42.445313 50.554688 42 50 42 Z M 9 50 C 8.445313 50 8 50.445313 8 51 L 8 53 C 8 53.554688 8.445313 54 9 54 C 9.554688 54 10 53.554688 10 53 L 10 51 C 10 50.445313 9.554688 50 9 50 Z M 14 50 C 13.445313 50 13 50.445313 13 51 L 13 53 C 13 53.554688 13.445313 54 14 54 C 14.554688 54 15 53.554688 15 53 L 15 51 C 15 50.445313 14.554688 50 14 50 Z M 19 50 C 18.445313 50 18 50.445313 18 51 L 18 53 C 18 53.554688 18.445313 54 19 54 C 19.554688 54 20 53.554688 20 53 L 20 51 C 20 50.445313 19.554688 50 19 50 Z M 24 50 C 23.445313 50 23 50.445313 23 51 L 23 53 C 23 53.554688 23.445313 54 24 54 C 24.554688 54 25 53.554688 25 53 L 25 51 C 25 50.445313 24.554688 50 24 50 Z M 29 50 C 28.445313 50 28 50.445313 28 51 L 28 53 C 28 53.554688 28.445313 54 29 54 C 29.554688 54 30 53.554688 30 53 L 30 51 C 30 50.445313 29.554688 50 29 50 Z M 34 50 C 33.445313 50 33 50.445313 33 51 L 33 53 C 33 53.554688 33.445313 54 34 54 C 34.554688 54 35 53.554688 35 53 L 35 51 C 35 50.445313 34.554688 50 34 50 Z M 39 50 C 38.445313 50 38 50.445313 38 51 L 38 53 C 38 53.554688 38.445313 54 39 54 C 39.554688 54 40 53.554688 40 53 L 40 51 C 40 50.445313 39.554688 50 39 50 Z M 44 50 C 43.445313 50 43 50.445313 43 51 L 43 53 C 43 53.554688 43.445313 54 44 54 C 44.554688 54 45 53.554688 45 53 L 45 51 C 45 50.445313 44.554688 50 44 50 Z M 49 50 C 48.445313 50 48 50.445313 48 51 L 48 53 C 48 53.554688 48.445313 54 49 54 C 49.554688 54 50 53.554688 50 53 L 50 51 C 50 50.445313 49.554688 50 49 50 Z M 54 50 C 53.445313 50 53 50.445313 53 51 L 53 53 C 53 53.554688 53.445313 54 54 54 C 54.554688 54 55 53.554688 55 53 L 55 51 C 55 50.445313 54.554688 50 54 50 Z " fill="#ffffff"/></g></svg>
