<?xml version="1.0" encoding="UTF-8"?>
<svg xmlns="http://www.w3.org/2000/svg" xmlns:xlink="http://www.w3.org/1999/xlink" viewBox="0 0 64 64" version="1.1" fill="#71deec"><g id="surface1" fill="#71deec"><path style=" " d="M 32 4 C 14.355469 4 0 15.558594 0 29.761719 C 0 38.632813 5.558594 46.679688 14.90625 51.398438 C 14.734375 53.746094 14.09375 57.65625 11.902344 61.3125 C 11.695313 61.65625 11.714844 62.085938 11.949219 62.410156 C 12.136719 62.675781 12.441406 62.828125 12.761719 62.828125 C 12.832031 62.828125 12.90625 62.820313 12.976563 62.804688 C 20.546875 61.121094 24.097656 56.804688 25.378906 54.792969 C 27.570313 55.160156 29.792969 55.34375 32 55.34375 C 49.644531 55.34375 64 43.867188 64 29.761719 C 64 15.554688 49.644531 4 32 4 Z M 32 6 C 48.542969 6 62 16.660156 62 29.761719 C 62 42.765625 48.542969 53.34375 32 53.34375 C 29.683594 53.34375 27.347656 53.128906 25.058594 52.703125 C 24.632813 52.628906 24.203125 52.824219 23.996094 53.203125 C 23.324219 54.429688 20.800781 58.261719 14.714844 60.257813 C 16.425781 56.527344 16.851563 52.871094 16.941406 50.839844 C 16.960938 50.441406 16.738281 50.066406 16.378906 49.890625 C 7.375 45.5625 2 38.035156 2 29.761719 C 2 16.660156 15.457031 6 32 6 Z M 32 10 C 18.238281 10 7.046875 18.972656 7.046875 30 C 7.046875 31.347656 7.210938 32.691406 7.539063 33.996094 C 7.65625 34.449219 8.0625 34.75 8.507813 34.75 C 8.589844 34.75 8.675781 34.742188 8.757813 34.71875 C 9.289063 34.585938 9.613281 34.039063 9.480469 33.503906 C 9.191406 32.359375 9.046875 31.183594 9.046875 30 C 9.046875 20.074219 19.34375 12 32 12 C 36.066406 12 40.0625 12.847656 43.554688 14.449219 C 44.058594 14.675781 44.652344 14.457031 44.878906 13.953125 C 45.109375 13.453125 44.890625 12.859375 44.390625 12.628906 C 40.636719 10.910156 36.351563 10 32 10 Z M 48.054688 15.019531 C 47.800781 15.0625 47.5625 15.199219 47.402344 15.421875 C 47.078125 15.867188 47.171875 16.492188 47.621094 16.816406 C 48.511719 17.46875 49.347656 18.183594 50.105469 18.9375 C 50.296875 19.136719 50.554688 19.234375 50.8125 19.234375 C 51.066406 19.234375 51.324219 19.136719 51.515625 18.941406 C 51.910156 18.550781 51.910156 17.917969 51.519531 17.527344 C 50.695313 16.699219 49.777344 15.914063 48.796875 15.203125 C 48.574219 15.039063 48.308594 14.980469 48.054688 15.019531 Z M 26.335938 20 C 25.511719 20 24.765625 20.148438 24.105469 20.445313 C 23.441406 20.742188 22.882813 21.132813 22.425781 21.609375 C 21.96875 22.089844 21.625 22.628906 21.394531 23.222656 C 21.167969 23.820313 21.050781 24.414063 21.050781 25.007813 C 21.050781 26.472656 21.554688 27.589844 22.5625 28.367188 C 23.566406 29.144531 24.734375 29.53125 26.0625 29.53125 C 26.015625 30.3125 25.808594 30.996094 25.441406 31.59375 C 25.078125 32.1875 24.621094 32.703125 24.074219 33.136719 C 23.523438 33.570313 22.941406 33.933594 22.324219 34.234375 C 22.316406 34.234375 22.308594 34.238281 22.300781 34.242188 C 21.453125 34.652344 21.15625 35.707031 21.683594 36.488281 L 22.65625 37.921875 C 22.949219 38.351563 23.429688 38.59375 23.921875 38.59375 C 24.140625 38.59375 24.363281 38.542969 24.574219 38.445313 C 24.976563 38.253906 25.382813 38.058594 25.613281 37.9375 C 26.1875 37.640625 26.792969 37.273438 27.433594 36.839844 C 28.074219 36.40625 28.644531 35.9375 29.144531 35.433594 C 30.289063 34.292969 31.171875 32.988281 31.785156 31.523438 C 32.402344 30.058594 32.714844 28.460938 32.714844 26.71875 C 32.714844 25.808594 32.578125 24.9375 32.300781 24.113281 C 32.027344 23.292969 31.640625 22.582031 31.136719 21.988281 C 30.542969 21.347656 29.820313 20.859375 28.976563 20.515625 C 28.128906 20.171875 27.25 20 26.335938 20 Z M 39.808594 20 C 38.984375 20 38.238281 20.148438 37.578125 20.445313 C 36.914063 20.742188 36.355469 21.132813 35.898438 21.609375 C 35.441406 22.089844 35.097656 22.628906 34.871094 23.222656 C 34.640625 23.820313 34.527344 24.414063 34.527344 25.007813 C 34.527344 26.472656 35.027344 27.589844 36.035156 28.367188 C 37.039063 29.144531 38.207031 29.53125 39.53125 29.53125 C 39.488281 30.3125 39.28125 30.996094 38.917969 31.59375 C 38.550781 32.1875 38.09375 32.703125 37.546875 33.136719 C 36.996094 33.570313 36.414063 33.933594 35.796875 34.234375 C 35.789063 34.234375 35.78125 34.238281 35.777344 34.242188 C 34.925781 34.652344 34.625 35.707031 35.15625 36.488281 L 36.125 37.921875 C 36.421875 38.351563 36.898438 38.59375 37.390625 38.59375 C 37.613281 38.59375 37.835938 38.542969 38.046875 38.445313 C 38.449219 38.253906 38.855469 38.058594 39.089844 37.9375 C 39.660156 37.640625 40.265625 37.273438 40.90625 36.839844 C 41.546875 36.40625 42.117188 35.9375 42.621094 35.433594 C 43.761719 34.292969 44.644531 32.988281 45.261719 31.523438 C 45.875 30.058594 46.1875 28.460938 46.1875 26.722656 C 46.1875 25.808594 46.050781 24.9375 45.777344 24.113281 C 45.5 23.292969 45.113281 22.585938 44.609375 21.988281 C 44.015625 21.351563 43.292969 20.859375 42.449219 20.515625 C 41.601563 20.171875 40.722656 20 39.808594 20 Z M 53.472656 20.8125 C 53.347656 20.832031 53.21875 20.875 53.101563 20.945313 C 52.628906 21.230469 52.476563 21.84375 52.761719 22.316406 C 54.21875 24.730469 54.953125 27.3125 54.953125 30 C 54.953125 38.195313 47.894531 45.359375 37.789063 47.421875 C 37.25 47.53125 36.898438 48.0625 37.011719 48.601563 C 37.105469 49.074219 37.523438 49.402344 37.988281 49.402344 C 38.054688 49.402344 38.121094 49.394531 38.1875 49.378906 C 49.238281 47.125 56.953125 39.15625 56.953125 30 C 56.953125 26.945313 56.121094 24.011719 54.472656 21.285156 C 54.257813 20.929688 53.859375 20.757813 53.472656 20.8125 Z M 26.335938 22 C 26.996094 22 27.613281 22.121094 28.222656 22.367188 C 28.785156 22.59375 29.246094 22.90625 29.640625 23.316406 C 29.960938 23.707031 30.21875 24.1875 30.40625 24.75 C 30.609375 25.363281 30.714844 26.027344 30.714844 26.722656 C 30.714844 28.183594 30.453125 29.535156 29.941406 30.746094 C 29.429688 31.960938 28.6875 33.0625 27.730469 34.019531 C 27.320313 34.429688 26.84375 34.820313 26.3125 35.183594 C 25.734375 35.574219 25.1875 35.902344 24.691406 36.160156 C 24.546875 36.238281 24.324219 36.347656 24.078125 36.464844 L 23.636719 35.808594 C 24.222656 35.492188 24.785156 35.121094 25.3125 34.703125 C 26.039063 34.128906 26.65625 33.433594 27.144531 32.640625 C 27.683594 31.769531 27.988281 30.761719 28.054688 29.65625 C 28.085938 29.105469 27.890625 28.566406 27.515625 28.164063 C 27.136719 27.761719 26.609375 27.535156 26.058594 27.535156 C 25.179688 27.535156 24.433594 27.289063 23.78125 26.785156 C 23.441406 26.523438 23.050781 26.082031 23.050781 25.007813 C 23.050781 24.65625 23.121094 24.308594 23.261719 23.941406 C 23.398438 23.59375 23.59375 23.28125 23.875 22.988281 C 24.148438 22.699219 24.492188 22.464844 24.921875 22.269531 C 25.324219 22.089844 25.800781 22 26.335938 22 Z M 39.808594 22 C 40.46875 22 41.085938 22.121094 41.699219 22.367188 C 42.257813 22.59375 42.71875 22.90625 43.109375 23.316406 C 43.433594 23.707031 43.691406 24.1875 43.875 24.75 C 44.082031 25.363281 44.1875 26.027344 44.1875 26.722656 C 44.1875 28.183594 43.925781 29.535156 43.417969 30.75 C 42.902344 31.964844 42.160156 33.066406 41.203125 34.019531 C 40.792969 34.433594 40.316406 34.824219 39.78125 35.1875 C 39.207031 35.574219 38.660156 35.90625 38.160156 36.164063 C 38.015625 36.238281 37.796875 36.347656 37.554688 36.464844 L 37.109375 35.808594 C 37.695313 35.492188 38.253906 35.121094 38.785156 34.703125 C 39.511719 34.128906 40.128906 33.429688 40.617188 32.640625 C 41.15625 31.765625 41.464844 30.761719 41.53125 29.652344 C 41.5625 29.101563 41.367188 28.5625 40.988281 28.160156 C 40.609375 27.761719 40.082031 27.53125 39.53125 27.53125 C 38.652344 27.53125 37.90625 27.289063 37.253906 26.78125 C 36.914063 26.519531 36.527344 26.082031 36.527344 25.007813 C 36.527344 24.65625 36.59375 24.308594 36.734375 23.941406 C 36.871094 23.589844 37.070313 23.277344 37.347656 22.988281 C 37.625 22.699219 37.96875 22.464844 38.394531 22.269531 C 38.796875 22.089844 39.273438 22 39.808594 22 Z M 12.945313 36.8125 C 12.695313 36.769531 12.421875 36.816406 12.199219 36.976563 L 10.558594 38.125 C 10.105469 38.4375 9.996094 39.0625 10.3125 39.515625 C 10.503906 39.792969 10.816406 39.941406 11.128906 39.941406 C 11.328125 39.941406 11.527344 39.882813 11.703125 39.761719 L 13.34375 38.613281 C 13.792969 38.300781 13.90625 37.675781 13.589844 37.222656 C 13.433594 37 13.195313 36.855469 12.945313 36.8125 Z M 16.386719 40.84375 C 16.128906 40.867188 15.882813 40.984375 15.703125 41.199219 L 14.417969 42.726563 C 14.0625 43.148438 14.117188 43.78125 14.539063 44.136719 C 14.726563 44.292969 14.957031 44.371094 15.183594 44.371094 C 15.46875 44.371094 15.75 44.25 15.949219 44.015625 L 17.234375 42.484375 C 17.589844 42.0625 17.539063 41.429688 17.113281 41.074219 C 16.902344 40.898438 16.640625 40.824219 16.386719 40.84375 Z M 21.128906 43.792969 C 20.738281 43.777344 20.359375 43.992188 20.1875 44.363281 L 19.339844 46.175781 C 19.105469 46.679688 19.320313 47.273438 19.820313 47.507813 C 19.957031 47.570313 20.101563 47.601563 20.246094 47.601563 C 20.621094 47.601563 20.980469 47.386719 21.152344 47.027344 L 22 45.214844 C 22.230469 44.714844 22.015625 44.117188 21.515625 43.886719 C 21.390625 43.828125 21.257813 43.796875 21.128906 43.792969 Z M 26.496094 45.457031 C 25.941406 45.355469 25.433594 45.722656 25.335938 46.265625 L 24.984375 48.238281 C 24.886719 48.78125 25.25 49.300781 25.796875 49.394531 C 25.855469 49.40625 25.914063 49.410156 25.96875 49.410156 C 26.445313 49.410156 26.867188 49.070313 26.953125 48.589844 L 27.304688 46.617188 C 27.402344 46.070313 27.039063 45.554688 26.496094 45.457031 Z M 31.707031 45.6875 C 31.160156 45.738281 30.753906 46.222656 30.800781 46.773438 L 30.972656 48.765625 C 31.019531 49.285156 31.453125 49.675781 31.96875 49.675781 C 31.996094 49.675781 32.027344 49.675781 32.058594 49.671875 C 32.605469 49.625 33.011719 49.144531 32.964844 48.59375 L 32.792969 46.597656 C 32.746094 46.050781 32.28125 45.632813 31.707031 45.6875 Z " fill="#71deec"/></g></svg>
