<?xml version="1.0" encoding="UTF-8"?>
<svg xmlns="http://www.w3.org/2000/svg" xmlns:xlink="http://www.w3.org/1999/xlink" viewBox="0 0 64 64" version="1.1" fill="#ffffff"><g id="surface1" fill="#ffffff"><path style=" " d="M 15 4 C 13.347656 4 12 5.347656 12 7 L 12 44 L 3 44 C 1.347656 44 0 45.347656 0 47 L 0 51 C 0 55.960938 4.039063 60 9 60 L 53 60 C 57.960938 60 62 55.960938 62 51 L 62 7 C 62 5.347656 60.652344 4 59 4 Z M 15 6 L 59 6 C 59.550781 6 60 6.449219 60 7 L 60 51 C 60 54.859375 56.859375 58 53 58 C 49.140625 58 46 54.859375 46 51 L 46 47 C 46 45.347656 44.652344 44 43 44 L 14 44 L 14 7 C 14 6.449219 14.449219 6 15 6 Z M 17 10 C 16.449219 10 16 10.449219 16 11 L 16 13 C 16 13.550781 16.449219 14 17 14 C 17.550781 14 18 13.550781 18 13 L 18 11 C 18 10.449219 17.550781 10 17 10 Z M 22 10 C 21.449219 10 21 10.449219 21 11 L 21 13 C 21 13.550781 21.449219 14 22 14 C 22.550781 14 23 13.550781 23 13 L 23 11 C 23 10.449219 22.550781 10 22 10 Z M 27 10 C 26.449219 10 26 10.449219 26 11 L 26 13 C 26 13.550781 26.449219 14 27 14 C 27.550781 14 28 13.550781 28 13 L 28 11 C 28 10.449219 27.550781 10 27 10 Z M 32 10 C 31.449219 10 31 10.449219 31 11 L 31 13 C 31 13.550781 31.449219 14 32 14 C 32.550781 14 33 13.550781 33 13 L 33 11 C 33 10.449219 32.550781 10 32 10 Z M 37 10 C 36.449219 10 36 10.449219 36 11 L 36 13 C 36 13.550781 36.449219 14 37 14 C 37.550781 14 38 13.550781 38 13 L 38 11 C 38 10.449219 37.550781 10 37 10 Z M 42 10 C 41.449219 10 41 10.449219 41 11 L 41 13 C 41 13.550781 41.449219 14 42 14 C 42.550781 14 43 13.550781 43 13 L 43 11 C 43 10.449219 42.550781 10 42 10 Z M 47 10 C 46.449219 10 46 10.449219 46 11 L 46 13 C 46 13.550781 46.449219 14 47 14 C 47.550781 14 48 13.550781 48 13 L 48 11 C 48 10.449219 47.550781 10 47 10 Z M 52 10 C 51.449219 10 51 10.449219 51 11 L 51 13 C 51 13.550781 51.449219 14 52 14 C 52.550781 14 53 13.550781 53 13 L 53 11 C 53 10.449219 52.550781 10 52 10 Z M 57 10 C 56.449219 10 56 10.449219 56 11 L 56 13 C 56 13.550781 56.449219 14 57 14 C 57.550781 14 58 13.550781 58 13 L 58 11 C 58 10.449219 57.550781 10 57 10 Z M 3 46 L 43 46 C 43.550781 46 44 46.449219 44 47 L 44 51 C 44 53.824219 45.3125 56.347656 47.355469 58 L 9 58 C 5.140625 58 2 54.859375 2 51 L 2 50 L 33 50 C 33.550781 50 34 49.550781 34 49 C 34 48.449219 33.550781 48 33 48 L 2 48 L 2 47 C 2 46.449219 2.449219 46 3 46 Z M 37 48 C 36.449219 48 36 48.449219 36 49 C 36 49.550781 36.449219 50 37 50 L 41 50 C 41.550781 50 42 49.550781 42 49 C 42 48.449219 41.550781 48 41 48 Z " fill="#ffffff"/></g></svg>
