<?xml version="1.0" encoding="UTF-8"?>
<svg xmlns="http://www.w3.org/2000/svg" xmlns:xlink="http://www.w3.org/1999/xlink" viewBox="0 0 64 64" version="1.1" fill="#ffffff"><g id="surface1" fill="#ffffff"><path style=" " d="M 32 0.117188 C 29.941406 0.117188 27.878906 0.757813 26.121094 2.039063 L 23.421875 4 L 9 4 C 7.351563 4 6 5.351563 6 7 L 6 59 C 6 60.648438 7.351563 62 9 62 L 55 62 C 56.648438 62 58 60.648438 58 59 L 58 7 C 58 5.351563 56.648438 4 55 4 L 40.578125 4 L 37.878906 2.039063 C 36.121094 0.757813 34.058594 0.121094 32 0.117188 Z M 32 2.125 C 33.648438 2.125 35.300781 2.636719 36.710938 3.660156 L 37.179688 4 L 39.921875 6 L 40.761719 6.609375 C 41.25 6.960938 41.609375 7.449219 41.8125 8 C 41.941406 8.328125 42 8.679688 42 9.039063 L 42 11 C 42 11.550781 41.550781 12 41 12 L 23 12 C 22.449219 12 22 11.550781 22 11 L 22 9.039063 C 22 8.679688 22.058594 8.328125 22.1875 8 C 22.390625 7.449219 22.75 6.960938 23.238281 6.609375 L 24.078125 6 L 26.820313 4 L 27.289063 3.660156 C 28.699219 2.636719 30.351563 2.125 32 2.125 Z M 32 4 C 30.894531 4 30 4.894531 30 6 C 30 7.105469 30.894531 8 32 8 C 33.105469 8 34 7.105469 34 6 C 34 4.894531 33.105469 4 32 4 Z M 9 6 L 21.03125 6 C 20.578125 6.589844 20.257813 7.269531 20.121094 8 L 11 8 C 10.449219 8 10 8.449219 10 9 L 10 57 C 10 57.550781 10.449219 58 11 58 L 53 58 C 53.550781 58 54 57.550781 54 57 L 54 9 C 54 8.449219 53.550781 8 53 8 L 43.878906 8 C 43.742188 7.269531 43.421875 6.589844 42.96875 6 L 55 6 C 55.550781 6 56 6.449219 56 7 L 56 59 C 56 59.550781 55.550781 60 55 60 L 9 60 C 8.449219 60 8 59.550781 8 59 L 8 7 C 8 6.449219 8.449219 6 9 6 Z M 12 10 L 20 10 L 20 11 C 20 12.648438 21.351563 14 23 14 L 41 14 C 42.648438 14 44 12.648438 44 11 L 44 10 L 52 10 L 52 50 C 51.445313 50 51 50.449219 51 51 L 51 53 C 51 53.550781 51.445313 54 52 54 L 52 56 L 12 56 L 12 54 C 12.554688 54 13 53.550781 13 53 L 13 51 C 13 50.449219 12.554688 50 12 50 Z M 41 16 C 40.746094 16 40.488281 16.097656 40.292969 16.292969 L 37.292969 19.292969 C 36.902344 19.683594 36.902344 20.316406 37.292969 20.707031 C 37.683594 21.097656 38.316406 21.097656 38.707031 20.707031 L 41 18.414063 L 43.292969 20.707031 C 43.488281 20.902344 43.742188 21 44 21 C 44.257813 21 44.511719 20.902344 44.707031 20.707031 C 45.097656 20.316406 45.097656 19.683594 44.707031 19.292969 L 41.707031 16.292969 C 41.511719 16.097656 41.253906 16 41 16 Z M 20 22 C 19.746094 22 19.488281 22.097656 19.292969 22.292969 C 18.902344 22.683594 18.902344 23.316406 19.292969 23.707031 L 20.585938 25 L 19.292969 26.292969 C 18.902344 26.683594 18.902344 27.316406 19.292969 27.707031 C 19.488281 27.902344 19.742188 28 20 28 C 20.257813 28 20.511719 27.902344 20.707031 27.707031 L 22 26.414063 L 23.292969 27.707031 C 23.488281 27.902344 23.742188 28 24 28 C 24.257813 28 24.511719 27.902344 24.707031 27.707031 C 25.097656 27.316406 25.097656 26.683594 24.707031 26.292969 L 23.414063 25 L 24.707031 23.707031 C 25.097656 23.316406 25.097656 22.683594 24.707031 22.292969 C 24.316406 21.902344 23.683594 21.902344 23.292969 22.292969 L 22 23.585938 L 20.707031 22.292969 C 20.511719 22.097656 20.253906 22 20 22 Z M 41 22 C 39.351563 22 38 23.351563 38 25 C 38 25.191406 38.019531 25.371094 38.050781 25.550781 L 23.9375 33.71875 C 23.417969 33.269531 22.730469 33 22 33 C 20.351563 33 19 34.351563 19 36 C 19 37.648438 20.351563 39 22 39 C 22.71875 39 23.390625 38.742188 23.910156 38.3125 L 34.0625 44.402344 C 34.019531 44.589844 34 44.800781 34 45 C 34 46.648438 35.351563 48 37 48 C 38.648438 48 40 46.648438 40 45 C 40 43.351563 38.648438 42 37 42 C 36.28125 42 35.609375 42.257813 35.089844 42.6875 L 24.9375 36.597656 C 24.980469 36.410156 25 36.199219 25 36 C 25 35.808594 24.980469 35.628906 24.949219 35.449219 L 39.0625 27.28125 C 39.582031 27.730469 40.269531 28 41 28 C 42.648438 28 44 26.648438 44 25 C 44 23.351563 42.648438 22 41 22 Z M 41 24 C 41.070313 24 41.140625 24.007813 41.199219 24.019531 C 41.308594 24.039063 41.410156 24.082031 41.5 24.140625 C 41.570313 24.179688 41.640625 24.230469 41.699219 24.289063 C 41.75 24.328125 41.789063 24.390625 41.828125 24.4375 C 41.828125 24.449219 41.839844 24.460938 41.847656 24.46875 C 41.871094 24.5 41.878906 24.53125 41.902344 24.5625 C 41.929688 24.628906 41.960938 24.699219 41.96875 24.769531 C 41.992188 24.839844 42 24.921875 42 25 C 42 25.070313 41.992188 25.140625 41.980469 25.199219 C 41.960938 25.308594 41.917969 25.410156 41.859375 25.5 C 41.820313 25.570313 41.769531 25.640625 41.710938 25.699219 C 41.671875 25.75 41.609375 25.789063 41.5625 25.828125 C 41.550781 25.828125 41.539063 25.839844 41.53125 25.847656 C 41.378906 25.941406 41.191406 26 41 26 C 40.449219 26 40 25.550781 40 25 C 40 24.660156 40.179688 24.351563 40.4375 24.171875 C 40.480469 24.148438 40.519531 24.121094 40.5625 24.097656 C 40.628906 24.070313 40.699219 24.039063 40.769531 24.03125 C 40.839844 24.007813 40.921875 24 41 24 Z M 39 32 C 38.746094 32 38.488281 32.097656 38.292969 32.292969 C 37.902344 32.683594 37.902344 33.316406 38.292969 33.707031 L 39.585938 35 L 38.292969 36.292969 C 37.902344 36.683594 37.902344 37.316406 38.292969 37.707031 C 38.488281 37.902344 38.742188 38 39 38 C 39.257813 38 39.511719 37.902344 39.707031 37.707031 L 41 36.414063 L 42.292969 37.707031 C 42.488281 37.902344 42.742188 38 43 38 C 43.257813 38 43.511719 37.902344 43.707031 37.707031 C 44.097656 37.316406 44.097656 36.683594 43.707031 36.292969 L 42.414063 35 L 43.707031 33.707031 C 44.097656 33.316406 44.097656 32.683594 43.707031 32.292969 C 43.316406 31.902344 42.683594 31.902344 42.292969 32.292969 L 41 33.585938 L 39.707031 32.292969 C 39.511719 32.097656 39.253906 32 39 32 Z M 22 35 C 22.050781 35 22.101563 35 22.152344 35.019531 C 22.191406 35.019531 22.230469 35.027344 22.261719 35.039063 C 22.339844 35.058594 22.410156 35.089844 22.480469 35.128906 C 22.511719 35.140625 22.53125 35.148438 22.5625 35.171875 C 22.820313 35.351563 23 35.660156 23 36 C 23 36.339844 22.820313 36.648438 22.5625 36.828125 C 22.519531 36.851563 22.480469 36.878906 22.4375 36.902344 C 22.308594 36.960938 22.160156 37 22 37 C 21.890625 37 21.789063 36.980469 21.6875 36.949219 C 21.628906 36.929688 21.589844 36.910156 21.539063 36.878906 C 21.527344 36.878906 21.519531 36.878906 21.511719 36.871094 C 21.5 36.859375 21.492188 36.859375 21.480469 36.847656 C 21.460938 36.839844 21.441406 36.832031 21.421875 36.8125 C 21.378906 36.78125 21.339844 36.75 21.300781 36.710938 L 21.289063 36.699219 C 21.238281 36.648438 21.191406 36.589844 21.152344 36.53125 C 21.128906 36.5 21.121094 36.46875 21.097656 36.4375 C 21.070313 36.371094 21.039063 36.300781 21.03125 36.21875 C 21.007813 36.152344 21 36.078125 21 36 C 21 35.921875 21.007813 35.847656 21.03125 35.78125 C 21.03125 35.769531 21.027344 35.75 21.039063 35.738281 C 21.039063 35.699219 21.050781 35.671875 21.070313 35.640625 C 21.082031 35.609375 21.089844 35.589844 21.109375 35.570313 C 21.097656 35.582031 21.089844 35.589844 21.078125 35.609375 C 21.089844 35.589844 21.097656 35.558594 21.121094 35.539063 C 21.121094 35.527344 21.121094 35.519531 21.128906 35.511719 C 21.140625 35.5 21.140625 35.492188 21.152344 35.480469 C 21.160156 35.460938 21.167969 35.441406 21.1875 35.421875 C 21.21875 35.378906 21.25 35.339844 21.289063 35.300781 L 21.300781 35.289063 C 21.351563 35.238281 21.410156 35.191406 21.46875 35.152344 C 21.492188 35.140625 21.519531 35.128906 21.539063 35.109375 C 21.679688 35.039063 21.828125 35 22 35 Z M 37 44 C 37.191406 44 37.359375 44.050781 37.511719 44.140625 C 37.511719 44.140625 37.519531 44.140625 37.519531 44.152344 C 37.597656 44.191406 37.660156 44.25 37.71875 44.3125 C 37.769531 44.359375 37.808594 44.410156 37.839844 44.460938 C 37.871094 44.5 37.890625 44.550781 37.910156 44.589844 C 37.96875 44.71875 38 44.851563 38 45 C 38 45.089844 37.992188 45.179688 37.960938 45.261719 C 37.941406 45.339844 37.910156 45.410156 37.871094 45.480469 C 37.871094 45.492188 37.859375 45.507813 37.847656 45.519531 C 37.808594 45.597656 37.75 45.660156 37.6875 45.71875 C 37.640625 45.769531 37.589844 45.808594 37.539063 45.839844 C 37.5 45.871094 37.449219 45.890625 37.410156 45.910156 C 37.28125 45.96875 37.148438 46 37 46 C 36.910156 46 36.820313 45.992188 36.738281 45.960938 C 36.660156 45.941406 36.589844 45.910156 36.519531 45.871094 C 36.488281 45.859375 36.46875 45.851563 36.4375 45.828125 C 36.179688 45.648438 36 45.339844 36 45 C 36 44.449219 36.449219 44 37 44 Z M 17 50 C 16.445313 50 16 50.449219 16 51 L 16 53 C 16 53.550781 16.445313 54 17 54 C 17.554688 54 18 53.550781 18 53 L 18 51 C 18 50.449219 17.554688 50 17 50 Z M 22 50 C 21.445313 50 21 50.449219 21 51 L 21 53 C 21 53.550781 21.445313 54 22 54 C 22.554688 54 23 53.550781 23 53 L 23 51 C 23 50.449219 22.554688 50 22 50 Z M 27 50 C 26.445313 50 26 50.449219 26 51 L 26 53 C 26 53.550781 26.445313 54 27 54 C 27.554688 54 28 53.550781 28 53 L 28 51 C 28 50.449219 27.554688 50 27 50 Z M 32 50 C 31.445313 50 31 50.449219 31 51 L 31 53 C 31 53.550781 31.445313 54 32 54 C 32.554688 54 33 53.550781 33 53 L 33 51 C 33 50.449219 32.554688 50 32 50 Z M 37 50 C 36.445313 50 36 50.449219 36 51 L 36 53 C 36 53.550781 36.445313 54 37 54 C 37.554688 54 38 53.550781 38 53 L 38 51 C 38 50.449219 37.554688 50 37 50 Z M 42 50 C 41.445313 50 41 50.449219 41 51 L 41 53 C 41 53.550781 41.445313 54 42 54 C 42.554688 54 43 53.550781 43 53 L 43 51 C 43 50.449219 42.554688 50 42 50 Z M 47 50 C 46.445313 50 46 50.449219 46 51 L 46 53 C 46 53.550781 46.445313 54 47 54 C 47.554688 54 48 53.550781 48 53 L 48 51 C 48 50.449219 47.554688 50 47 50 Z " fill="#ffffff"/></g></svg>
